Coordinates
version=1
nRows=24
nColumns=24
inDegrees=yes

Units are S.I. units (second, meters, Newtons, ...)
Angles are in degrees.

endheader
time	pelvis_tilt	pelvis_list	pelvis_rotation	pelvis_tx	pelvis_ty	pelvis_tz	hip_flexion_r	hip_adduction_r	hip_rotation_r	knee_angle_r	ankle_angle_r	subtalar_angle_r	mtp_angle_r	hip_flexion_l	hip_adduction_l	hip_rotation_l	knee_angle_l	ankle_angle_l	subtalar_angle_l	mtp_angle_l	lumbar_extension	lumbar_bending	lumbar_rotation
      5.57000000	     -4.10351002	      7.40421298	     17.46489938	      1.01598327	      0.64643963	     -0.23425609	     27.66311121	     -9.51950459	    -15.35117937	     -7.52097476	     -4.15974135	    -20.44590299	      0.00000000	    -14.96893577	      5.69554558	     10.98784042	    -18.05075438	     18.60959209	      6.19449209	      0.00000000	    -18.74670806	     -9.28940390	    -17.58663623
      5.58000000	     -4.26590428	      6.71974343	     17.02827774	      1.02943255	      0.64551767	     -0.23336975	     28.64633676	     -8.78332483	    -14.59832049	    -10.64984363	     -5.78797146	    -23.72506267	      0.00000000	    -14.36998738	      4.92316241	     10.32515382	    -20.30747940	     16.90076040	      6.27190472	      0.00000000	    -18.31440070	     -8.76060758	    -16.73102308
      5.59000000	     -4.23697777	      5.96881688	     16.44849990	      1.04296127	      0.64512932	     -0.23225434	     29.45831408	     -7.81990977	    -13.81759677	    -13.93096134	     -6.23462449	    -25.92528277	      0.00000000	    -13.76324854	      4.06348665	      9.43574271	    -22.77449987	     14.60619714	      6.21569272	      0.00000000	    -18.07842246	     -8.15063063	    -15.73493399
      5.60000000	     -4.02842527	      5.18431161	     15.85262020	      1.05652958	      0.64537732	     -0.23102044	     29.92272271	     -6.68700732	    -13.19344055	    -16.97637428	     -5.59949389	    -27.00334901	      0.00000000	    -13.09675108	      3.12038493	      8.42779283	    -25.49792837	     11.48074452	      5.99016323	      0.00000000	    -18.04602819	     -7.48000104	    -14.70444372
      5.61000000	     -3.88820514	      4.46003739	     15.21800989	      1.07013971	      0.64598307	     -0.22960321	     30.20948726	     -5.45221858	    -12.33228231	    -19.60383903	     -4.51590486	    -27.98261674	      0.00000000	    -12.13186710	      2.24788716	      7.27038837	    -28.46970705	      7.72627130	      5.56679157	      0.00000000	    -17.91520112	     -6.97262731	    -13.73753658
      5.62000000	     -3.76104191	      3.85784517	     14.70881621	      1.08368859	      0.64706766	     -0.22818041	     30.10439030	     -4.25603747	    -11.49315570	    -21.57155170	     -3.03903840	    -28.67011690	      0.00000000	    -10.91256947	      1.49744543	      6.34261221	    -31.69026760	      3.18566216	      4.56802305	      0.00000000	    -17.77698203	     -6.62382770	    -12.95445791
      5.63000000	     -3.53985234	      3.34759804	     14.34719234	      1.09714645	      0.64863009	     -0.22678616	     29.50546627	     -3.11693232	    -10.89350605	    -22.87688419	     -1.60390772	    -29.16742907	      0.00000000	     -9.52329680	      0.77485648	      5.54829475	    -35.15659084	     -1.77279006	      3.27783288	      0.00000000	    -17.71814671	     -6.37204774	    -12.28895127
      5.64000000	     -3.32229844	      2.91031810	     14.13314818	      1.11042474	      0.65044467	     -0.22539957	     28.55157292	     -2.02923543	    -10.32878466	    -23.54794671	     -0.33073300	    -29.82669585	      0.00000000	     -7.85771454	      0.10652186	      4.93906858	    -38.88314207	     -6.56720932	      1.65845423	      0.00000000	    -17.61546157	     -6.22315708	    -11.74621844
      5.65000000	     -3.14267284	      2.59846477	     14.06728591	      1.12341197	      0.65242776	     -0.22410138	     27.37174920	     -1.12556763	     -9.94077859	    -23.75204972	      0.67668676	    -30.47240421	      0.00000000	     -5.92711814	     -0.40849697	      4.54877431	    -42.78682190	    -10.92850556	     -0.38819368	      0.00000000	    -17.46425034	     -6.22347870	    -11.28658268
      5.66000000	     -3.00418059	      2.38150492	     14.09084803	      1.13606019	      0.65451781	     -0.22288540	     26.05665487	     -0.38213584	     -9.73656668	    -23.61450224	      1.49256402	    -31.00355146	      0.00000000	     -3.77847042	     -0.76292122	      4.31076911	    -46.76347502	    -14.49062852	     -3.00577429	      0.00000000	    -17.27126523	     -6.33888282	    -10.84145745
      5.67000000	     -2.89429801	      2.20616883	     14.14309643	      1.14838391	      0.65670409	     -0.22174307	     24.65420659	      0.26472120	     -9.71658552	    -23.21431634	      2.21496780	    -31.30432070	      0.00000000	     -1.48565340	     -0.99259060	      4.14662188	    -50.66955587	    -17.05971812	     -6.26612857	      0.00000000	    -17.04170263	     -6.49931117	    -10.33341327
      5.68000000	     -2.78785186	      2.04769924	     14.17502894	      1.16041492	      0.65901588	     -0.22066872	     23.16693453	      0.86598103	     -9.83175988	    -22.59248847	      2.96235386	    -31.29093570	      0.00000000	      0.86034888	     -1.12325413	      4.00025011	    -54.35606727	    -18.56964098	    -10.12343182	      0.00000000	    -16.80294827	     -6.65621593	     -9.73640746
      5.69000000	     -2.67214498	      1.92940933	     14.14051573	      1.17222600	      0.66146645	     -0.21965167	     21.60271505	      1.41520372	    -10.05459201	    -21.80839458	      3.76075097	    -30.94021804	      0.00000000	      3.17269990	     -1.13606745	      3.83589069	    -57.68482172	    -19.05851773	    -14.36977232	      0.00000000	    -16.56946444	     -6.83285931	     -9.02055931
      5.70000000	     -2.55184291	      1.87356820	     14.02992955	      1.18388136	      0.66405430	     -0.21868842	     19.94980340	      1.91049973	    -10.28429942	    -20.85195283	      4.59247409	    -30.29965696	      0.00000000	      5.40866940	     -1.01447531	      3.66936033	    -60.55722831	    -18.69024912	    -18.57208693	      0.00000000	    -16.33732540	     -7.04602415	     -8.19805395
      5.71000000	     -2.44500839	      1.91498906	     13.81034246	      1.19544141	      0.66673048	     -0.21774156	     18.22343352	      2.32535909	    -10.45981903	    -19.73603965	      5.43204922	    -29.44171293	      0.00000000	      7.55582424	     -0.75812753	      3.43372526	    -62.92219174	    -17.62168845	    -22.26341146	      0.00000000	    -16.08584047	     -7.34311345	     -7.31720023
      5.72000000	     -2.36120322	      2.08880899	     13.48218692	      1.20689198	      0.66942674	     -0.21680466	     16.45961700	      2.61470646	    -10.53589296	    -18.52938933	      6.25984747	    -28.45810525	      0.00000000	      9.61168349	     -0.34126355	      3.14109549	    -64.77745237	    -16.02980749	    -25.05434253	      0.00000000	    -15.83085007	     -7.75893836	     -6.36833022
      5.73000000	     -2.27635870	      2.38463840	     13.02444684	      1.21825226	      0.67208737	     -0.21583941	     14.63351496	      2.80729474	    -10.39187173	    -17.21228608	      6.68216961	    -27.89373944	      0.00000000	     11.55368624	      0.18895843	      2.76212335	    -66.14581365	    -14.03733929	    -26.68895662	      0.00000000	    -15.59410871	     -8.28459557	     -5.29673585
      5.74000000	     -2.28873835	      2.80347054	     12.52051280	      1.22946689	      0.67458742	     -0.21493927	     12.93190105	      2.78893845	    -10.43083863	    -15.96916227	      7.47614997	    -26.69765741	      0.00000000	     13.50220100	      0.85621652	      2.35159305	    -67.06678540	    -11.74623104	    -27.12014737	      0.00000000	    -15.28774656	     -8.91320635	     -4.36347299
      5.75000000	     -2.28445733	      3.25838035	     11.87930858	      1.24054852	      0.67692440	     -0.21401001	     11.22507036	      2.73640461	    -10.31073847	    -14.70339062	      7.95468474	    -25.75689619	      0.00000000	     15.34218201	      1.50853016	      1.83997356	    -67.54986598	     -9.48589664	    -26.74995710	      0.00000000	    -15.00899542	     -9.53817280	     -3.36151110
      5.76000000	     -2.29316791	      3.70044799	     11.13341338	      1.25146377	      0.67901445	     -0.21308557	      9.60267189	      2.65386148	    -10.21314180	    -13.51171455	      8.39381541	    -24.74886577	      0.00000000	     17.12748613	      2.08826591	      1.25133392	    -67.64789965	     -7.14604890	    -25.59067717	      0.00000000	    -14.72456164	    -10.09875065	     -2.35746820
      5.77000000	     -2.27494829	      4.08370401	     10.28235282	      1.26219126	      0.68084509	     -0.21217485	      8.04575299	      2.58573097	    -10.19567163	    -12.41621064	      8.82554345	    -23.60559741	      0.00000000	     18.82169816	      2.52839811	      0.59074680	    -67.37867599	     -4.84876965	    -24.01360120	      0.00000000	    -14.47687238	    -10.53113120	     -1.35870779
      5.78000000	     -2.22387463	      4.38706783	      9.32179170	      1.27272294	      0.68240448	     -0.21125947	      6.54785287	      2.56207459	    -10.18289564	    -11.41397051	      9.26944320	    -22.36143080	      0.00000000	     20.40845682	      2.79584414	     -0.15335494	    -66.73754279	     -2.71588588	    -22.44025746	      0.00000000	    -14.28580621	    -10.81622110	     -0.42508394
      5.79000000	     -2.10739485	      4.56731269	      8.28016946	      1.28309808	      0.68369887	     -0.21039334	      5.08876789	      2.60841987	    -10.35648105	    -10.52989914	      9.74163356	    -20.97683910	      0.00000000	     21.84350820	      2.85964987	     -0.93021905	    -65.73764189	     -0.81732133	    -21.15000634	      0.00000000	    -14.16823070	    -10.89472237	      0.55967637
      5.80000000	     -1.93267011	      4.62327867	      7.14913865	      1.29332971	      0.68474133	     -0.20953033	      3.65126807	      2.73632414	    -10.60761990	     -9.73802051	     10.28790231	    -19.33040369	      0.00000000	     23.11285878	      2.71026819	     -1.76534035	    -64.35820875	      0.65989131	    -20.45721797	      0.00000000	    -14.13981145	    -10.78504932	      1.47737550
